<svg width="59" height="28" viewBox="0 0 59 28" fill="none" xmlns="http://www.w3.org/2000/svg">
<g clip-path="url(#clip0_859_168)">
<path d="M48.6931 23.2656C44.6453 23.2656 40.3711 20.6199 38.2731 18.6989C35.9794 16.5978 29.6761 9.76227 29.6483 9.73139C25.5151 5.11842 19.9571 0 14.4125 0C7.73445 0 1.91086 4.62429 0.395508 10.7516C0.511836 10.348 2.63353 4.73547 10.6035 4.73547C14.6513 4.73547 18.9256 7.38115 21.0236 9.30211C23.3172 11.4032 29.6205 18.2388 29.6483 18.2696C33.7816 22.8816 39.3396 28 44.8842 28C51.5622 28 57.3858 23.3757 58.9011 17.2484C58.7848 17.652 56.6631 23.2645 48.6931 23.2645V23.2656Z" fill="#00ACE5"/>
<path d="M29.6481 18.2707C29.6337 18.2542 27.8187 16.2859 25.7835 14.1385C24.6841 15.4438 23.0987 17.2227 21.2766 18.8194C17.8815 21.7955 15.6743 22.4194 14.4122 22.4194C9.65 22.4194 5.76589 18.6423 5.76589 14.0005C5.76589 9.35873 9.64588 5.61051 14.4122 5.58168C14.5852 5.58168 14.7942 5.59918 15.0484 5.64448C13.6165 5.09475 12.0949 4.73547 10.6033 4.73547C2.63637 4.73547 0.512613 10.3449 0.396285 10.7505C0.137893 11.7944 0.000976562 12.8825 0.000976562 13.9995C0.000976562 21.7193 6.36915 28 14.3103 28C17.621 28 21.3291 26.3024 25.1484 22.9557C26.954 21.3734 28.5198 19.681 29.6954 18.3201C29.68 18.3036 29.6645 18.2861 29.6501 18.2696L29.6481 18.2707Z" fill="url(#paint0_linear_859_168)"/>
<path d="M29.6489 9.73036C29.6633 9.74683 31.4782 11.7151 33.5134 13.8626C34.6129 12.5572 36.1982 10.7783 38.0203 9.18166C41.4155 6.20552 43.6226 5.58168 44.8847 5.58168C49.6469 5.58168 53.531 9.35873 53.531 14.0005C53.531 18.6166 49.6511 22.3905 44.8847 22.4194C44.7118 22.4194 44.5028 22.4019 44.2485 22.3566C45.6805 22.9063 47.202 23.2656 48.6937 23.2656C56.6606 23.2656 58.7843 17.6561 58.9007 17.2505C59.159 16.2066 59.296 15.1185 59.296 14.0015C59.297 6.28067 52.8259 0 44.8847 0C41.574 0 37.9689 1.69756 34.1496 5.0443C32.344 6.62657 30.7782 8.31898 29.6025 9.67992C29.618 9.69639 29.6334 9.71389 29.6478 9.73036H29.6489Z" fill="url(#paint1_linear_859_168)"/>
</g>
<defs>
<linearGradient id="paint0_linear_859_168" x1="21.884" y1="26.1696" x2="2.38105" y2="5.97391" gradientUnits="userSpaceOnUse">
<stop offset="0.22" stop-color="#FF0079"/>
<stop offset="0.89" stop-color="#592489"/>
</linearGradient>
<linearGradient id="paint1_linear_859_168" x1="37.4006" y1="1.84374" x2="56.9035" y2="22.0384" gradientUnits="userSpaceOnUse">
<stop offset="0.21" stop-color="#FF4B00"/>
<stop offset="0.68" stop-color="#FFAB00"/>
</linearGradient>
<clipPath id="clip0_859_168">
<rect width="199.188" height="28" fill="white"/>
</clipPath>
</defs>
</svg>
