<svg width="16" height="16" viewBox="0 0 16 16" fill="none" xmlns="http://www.w3.org/2000/svg">
<path d="M4.73999 12.256V9.452C4.73999 9.28667 4.87332 9.15334 5.03866 9.15334H10.9627C11.128 9.15334 11.2613 9.28667 11.2613 9.452V12.2573C11.2613 12.4733 11.0853 12.6493 10.8693 12.6493H5.13199C4.91599 12.6493 4.73999 12.472 4.73999 12.256Z" fill="#64EDAC"/>
<path d="M12.584 4.396H10.9466C11.0573 4.16 11.1226 3.89733 11.1226 3.61866C11.1226 2.61333 10.3053 1.796 9.29997 1.796C8.79064 1.796 8.33064 2.00533 7.99997 2.34266C7.66931 2.00533 7.20931 1.796 6.69997 1.796C5.69464 1.796 4.87731 2.61333 4.87731 3.61866C4.87731 3.89733 4.9413 4.15866 5.05331 4.396H3.41597C2.5613 4.396 1.86664 5.09066 1.86664 5.944V7.096C1.86664 7.82 2.36797 8.428 3.04131 8.59733V12.1093C3.04131 13.2627 3.97997 14.2013 5.13331 14.2013H10.8693C12.0226 14.2013 12.9613 13.2627 12.9613 12.1093V8.59733C13.6346 8.428 14.136 7.82 14.136 7.096V5.944C14.1346 5.09066 13.4386 4.396 12.584 4.396ZM9.29997 2.844C9.50613 2.844 9.70385 2.9259 9.84963 3.07167C9.99541 3.21745 10.0773 3.41517 10.0773 3.62133C10.0773 3.82749 9.99541 4.02521 9.84963 4.17099C9.70385 4.31677 9.50613 4.39866 9.29997 4.39866H8.52264V3.62C8.52264 3.192 8.87064 2.844 9.29997 2.844ZM5.92397 3.62C5.92397 3.192 6.27197 2.84266 6.70131 2.84266C7.13064 2.84266 7.47864 3.192 7.47864 3.62V4.39733H6.70131C6.27197 4.396 5.92397 4.048 5.92397 3.62ZM2.91197 5.944C2.91197 5.66666 3.13731 5.44133 3.41464 5.44133H7.47864V7.6H3.41597C3.13864 7.6 2.91331 7.37466 2.91331 7.09733L2.91197 5.944ZM4.08664 12.1093V8.64533H7.47731V13.156H5.13197C4.55597 13.156 4.08664 12.688 4.08664 12.1093ZM11.9133 12.1093C11.9133 12.6867 11.444 13.156 10.8666 13.156H8.52264V8.64533H11.9133V12.1093ZM13.088 7.09733C13.088 7.37466 12.8626 7.6 12.5853 7.6H8.52264V5.44266H12.5853C12.8626 5.44266 13.088 5.668 13.088 5.94533V7.09733Z" fill="#333C4F"/>
</svg>
