<svg width="16" height="16" viewBox="0 0 16 16" fill="none" xmlns="http://www.w3.org/2000/svg">
<g clip-path="url(#clip0_315_2)">
<circle cx="8" cy="8" r="8" fill="#00CC70"/>
<path d="M4.39062 12.6121V10.248H7.85278L4.91036 12.7091C4.74959 12.8435 4.39062 12.7765 4.39062 12.6121Z" fill="white"/>
<path d="M8.14925 8.36221C8.45415 8.36221 8.70132 8.11504 8.70132 7.81013C8.70132 7.50523 8.45415 7.25806 8.14925 7.25806C7.84434 7.25806 7.59717 7.50523 7.59717 7.81013C7.59717 8.11504 7.84434 8.36221 8.14925 8.36221Z" fill="white"/>
<path d="M9.96809 8.36221C10.273 8.36221 10.5202 8.11504 10.5202 7.81013C10.5202 7.50523 10.273 7.25806 9.96809 7.25806C9.66319 7.25806 9.41602 7.50523 9.41602 7.81013C9.41602 8.11504 9.66319 8.36221 9.96809 8.36221Z" fill="white"/>
<path d="M11.7865 8.36221C12.0914 8.36221 12.3385 8.11504 12.3385 7.81013C12.3385 7.50523 12.0914 7.25806 11.7865 7.25806C11.4815 7.25806 11.2344 7.50523 11.2344 7.81013C11.2344 8.11504 11.4815 8.36221 11.7865 8.36221Z" fill="white"/>
<path d="M12.3917 9.85803V9.85895C12.3917 9.85895 12.3903 9.85849 12.389 9.85803C12.3756 9.85803 12.3622 9.85895 12.3483 9.85895C11.9995 9.85895 11.671 9.77256 11.3818 9.62102V9.62195C11.2737 9.57021 11.1624 9.5314 11.0492 9.50414C10.7387 9.45055 10.4001 9.41267 10.0605 9.41267C9.66091 9.41267 9.26129 9.46441 8.90694 9.53232C8.90278 9.53325 8.89863 9.53417 8.89447 9.53463C8.78221 9.56143 8.6741 9.59931 8.57154 9.64782C8.30867 9.77579 8.0153 9.8511 7.70485 9.85803C7.703 9.85895 7.70161 9.85941 7.70161 9.85941V9.85849C7.68729 9.85849 7.67297 9.85941 7.65865 9.85941C6.50552 9.85941 5.57091 8.92481 5.57091 7.77168C5.57091 6.61855 6.50552 5.68395 7.65865 5.68395C7.67297 5.68395 7.68729 5.68487 7.70161 5.68487V5.68395C7.70161 5.68395 7.703 5.68441 7.70485 5.68533C8.0153 5.69226 8.3082 5.76711 8.57108 5.89508H8.57154C8.67733 5.9459 8.78729 5.9847 8.89909 6.01242C9.24697 6.07941 9.6392 6.13069 10.0328 6.13069C10.3821 6.13069 10.7309 6.09096 11.0497 6.03598C11.1628 6.01011 11.2737 5.97223 11.3809 5.92233C11.6701 5.7708 11.9986 5.68487 12.3478 5.68487C12.3612 5.68487 12.3746 5.68579 12.3885 5.68579L12.3913 5.68487V5.68579C12.5775 5.68949 12.7576 5.71813 12.929 5.76757C12.4596 4.30906 11.0922 3.25342 9.4775 3.25342H6.71896C4.71669 3.25342 3.09326 4.87685 3.09326 6.87911V8.66563C3.09326 10.6679 4.71669 12.2913 6.71896 12.2913H9.4775C11.0922 12.2913 12.4592 11.2357 12.9286 9.77718C12.7572 9.82661 12.577 9.85525 12.3908 9.85895L12.3917 9.85803Z" fill="white"/>
</g>
<defs>
<clipPath id="clip0_315_2">
<rect width="16" height="16" fill="white"/>
</clipPath>
</defs>
</svg>
